<svg width="298" height="42" viewBox="0 0 298 42" fill="none" xmlns="http://www.w3.org/2000/svg">
  <style>
    .logo-nuxt {
      fill: #00DC82;    
    }
    html.dark .logo-nuxt {
      fill: white;
    }
  </style>
  <path d="M82.176 32V9.6H87.04L94.176 23.808L101.216 9.6H106.08V32H101.984V16.544L95.744 28.8H92.512L86.272 16.544V32H82.176ZM117.306 32.384C115.77 32.384 114.383 32.032 113.146 31.328C111.93 30.624 110.959 29.6533 110.234 28.416C109.53 27.1573 109.178 25.7067 109.178 24.064C109.178 22.4213 109.541 20.9813 110.266 19.744C110.991 18.4853 111.962 17.504 113.178 16.8C114.415 16.096 115.802 15.744 117.338 15.744C118.853 15.744 120.218 16.096 121.434 16.8C122.671 17.504 123.642 18.4853 124.346 19.744C125.071 20.9813 125.434 22.4213 125.434 24.064C125.434 25.7067 125.071 27.1573 124.346 28.416C123.642 29.6533 122.671 30.624 121.434 31.328C120.197 32.032 118.821 32.384 117.306 32.384ZM117.306 28.832C118.373 28.832 119.301 28.4373 120.09 27.648C120.879 26.8373 121.274 25.6427 121.274 24.064C121.274 22.4853 120.879 21.3013 120.09 20.512C119.301 19.7013 118.383 19.296 117.338 19.296C116.25 19.296 115.311 19.7013 114.522 20.512C113.754 21.3013 113.37 22.4853 113.37 24.064C113.37 25.6427 113.754 26.8373 114.522 27.648C115.311 28.4373 116.239 28.832 117.306 28.832ZM128.456 32V16.128H132.072L132.392 18.816C132.883 17.8773 133.587 17.1307 134.504 16.576C135.443 16.0213 136.542 15.744 137.8 15.744C139.763 15.744 141.288 16.3627 142.376 17.6C143.464 18.8373 144.008 20.6507 144.008 23.04V32H139.912V23.424C139.912 22.0587 139.635 21.0133 139.08 20.288C138.526 19.5627 137.662 19.2 136.488 19.2C135.336 19.2 134.387 19.6053 133.64 20.416C132.915 21.2267 132.552 22.3573 132.552 23.808V32H128.456ZM152.757 32.384C151.392 32.384 150.272 32.1707 149.397 31.744C148.522 31.296 147.872 30.7093 147.445 29.984C147.018 29.2587 146.805 28.4587 146.805 27.584C146.805 26.112 147.381 24.9173 148.533 24C149.685 23.0827 151.413 22.624 153.717 22.624H157.749V22.24C157.749 21.152 157.44 20.352 156.821 19.84C156.202 19.328 155.434 19.072 154.517 19.072C153.685 19.072 152.96 19.2747 152.341 19.68C151.722 20.064 151.338 20.64 151.189 21.408H147.189C147.296 20.256 147.68 19.2533 148.341 18.4C149.024 17.5467 149.898 16.896 150.965 16.448C152.032 15.9787 153.226 15.744 154.549 15.744C156.81 15.744 158.592 16.3093 159.893 17.44C161.194 18.5707 161.845 20.1707 161.845 22.24V32H158.357L157.973 29.44C157.504 30.2933 156.842 30.9973 155.989 31.552C155.157 32.1067 154.08 32.384 152.757 32.384ZM153.685 29.184C154.858 29.184 155.765 28.8 156.405 28.032C157.066 27.264 157.482 26.3147 157.653 25.184H154.165C153.077 25.184 152.298 25.3867 151.829 25.792C151.36 26.176 151.125 26.656 151.125 27.232C151.125 27.8507 151.36 28.3307 151.829 28.672C152.298 29.0133 152.917 29.184 153.685 29.184ZM172.89 32.384C171.268 32.384 169.839 32.032 168.602 31.328C167.364 30.624 166.383 29.6427 165.658 28.384C164.954 27.1253 164.602 25.6853 164.602 24.064C164.602 22.4427 164.954 21.0027 165.658 19.744C166.383 18.4853 167.364 17.504 168.602 16.8C169.839 16.096 171.268 15.744 172.89 15.744C174.916 15.744 176.623 16.2773 178.01 17.344C179.396 18.3893 180.282 19.84 180.666 21.696H176.346C176.132 20.928 175.706 20.3307 175.066 19.904C174.447 19.456 173.711 19.232 172.858 19.232C171.727 19.232 170.767 19.6587 169.978 20.512C169.188 21.3653 168.794 22.5493 168.794 24.064C168.794 25.5787 169.188 26.7627 169.978 27.616C170.767 28.4693 171.727 28.896 172.858 28.896C173.711 28.896 174.447 28.6827 175.066 28.256C175.706 27.8293 176.132 27.2213 176.346 26.432H180.666C180.282 28.224 179.396 29.664 178.01 30.752C176.623 31.84 174.916 32.384 172.89 32.384ZM191.277 32.384C189.741 32.384 188.355 32.032 187.117 31.328C185.901 30.624 184.931 29.6533 184.205 28.416C183.501 27.1573 183.149 25.7067 183.149 24.064C183.149 22.4213 183.512 20.9813 184.237 19.744C184.963 18.4853 185.933 17.504 187.149 16.8C188.387 16.096 189.773 15.744 191.309 15.744C192.824 15.744 194.189 16.096 195.405 16.8C196.643 17.504 197.613 18.4853 198.317 19.744C199.043 20.9813 199.405 22.4213 199.405 24.064C199.405 25.7067 199.043 27.1573 198.317 28.416C197.613 29.6533 196.643 30.624 195.405 31.328C194.168 32.032 192.792 32.384 191.277 32.384ZM191.277 28.832C192.344 28.832 193.272 28.4373 194.061 27.648C194.851 26.8373 195.245 25.6427 195.245 24.064C195.245 22.4853 194.851 21.3013 194.061 20.512C193.272 19.7013 192.355 19.296 191.309 19.296C190.221 19.296 189.283 19.7013 188.493 20.512C187.725 21.3013 187.341 22.4853 187.341 24.064C187.341 25.6427 187.725 26.8373 188.493 27.648C189.283 28.4373 190.211 28.832 191.277 28.832ZM209.508 32V9.6H224.132V12.896H213.604V19.04H223.172V22.24H213.604V28.704H224.132V32H209.508ZM234.569 32.384C233.075 32.384 231.742 32.0213 230.569 31.296C229.395 30.5707 228.467 29.5787 227.785 28.32C227.102 27.0613 226.761 25.632 226.761 24.032C226.761 22.432 227.102 21.0133 227.785 19.776C228.467 18.5173 229.395 17.536 230.569 16.832C231.742 16.1067 233.075 15.744 234.569 15.744C235.763 15.744 236.809 15.968 237.705 16.416C238.601 16.864 239.326 17.4933 239.881 18.304V8.96H243.977V32H240.329L239.881 29.728C239.369 30.432 238.686 31.0507 237.833 31.584C237.001 32.1173 235.913 32.384 234.569 32.384ZM235.433 28.8C236.755 28.8 237.833 28.3627 238.665 27.488C239.518 26.592 239.945 25.4507 239.945 24.064C239.945 22.6773 239.518 21.5467 238.665 20.672C237.833 19.776 236.755 19.328 235.433 19.328C234.131 19.328 233.054 19.7653 232.201 20.64C231.347 21.5147 230.921 22.6453 230.921 24.032C230.921 25.4187 231.347 26.56 232.201 27.456C233.054 28.352 234.131 28.8 235.433 28.8ZM249.716 13.664C248.969 13.664 248.35 13.44 247.86 12.992C247.39 12.544 247.156 11.9787 247.156 11.296C247.156 10.6133 247.39 10.0587 247.86 9.632C248.35 9.184 248.969 8.96 249.716 8.96C250.462 8.96 251.07 9.184 251.54 9.632C252.03 10.0587 252.276 10.6133 252.276 11.296C252.276 11.9787 252.03 12.544 251.54 12.992C251.07 13.44 250.462 13.664 249.716 13.664ZM247.668 32V16.128H251.764V32H247.668ZM262.471 32C260.807 32 259.473 31.5947 258.471 30.784C257.468 29.9733 256.967 28.5333 256.967 26.464V19.552H254.247V16.128H256.967L257.447 11.872H261.063V16.128H265.351V19.552H261.063V26.496C261.063 27.264 261.223 27.7973 261.543 28.096C261.884 28.3733 262.46 28.512 263.271 28.512H265.255V32H262.471ZM275.437 32.384C273.901 32.384 272.515 32.032 271.277 31.328C270.061 30.624 269.091 29.6533 268.365 28.416C267.661 27.1573 267.309 25.7067 267.309 24.064C267.309 22.4213 267.672 20.9813 268.397 19.744C269.123 18.4853 270.093 17.504 271.309 16.8C272.547 16.096 273.933 15.744 275.469 15.744C276.984 15.744 278.349 16.096 279.565 16.8C280.803 17.504 281.773 18.4853 282.477 19.744C283.203 20.9813 283.565 22.4213 283.565 24.064C283.565 25.7067 283.203 27.1573 282.477 28.416C281.773 29.6533 280.803 30.624 279.565 31.328C278.328 32.032 276.952 32.384 275.437 32.384ZM275.437 28.832C276.504 28.832 277.432 28.4373 278.221 27.648C279.011 26.8373 279.405 25.6427 279.405 24.064C279.405 22.4853 279.011 21.3013 278.221 20.512C277.432 19.7013 276.515 19.296 275.469 19.296C274.381 19.296 273.443 19.7013 272.653 20.512C271.885 21.3013 271.501 22.4853 271.501 24.064C271.501 25.6427 271.885 26.8373 272.653 27.648C273.443 28.4373 274.371 28.832 275.437 28.832ZM286.588 32V16.128H290.236L290.62 19.104C291.196 18.08 291.974 17.2693 292.956 16.672C293.958 16.0533 295.132 15.744 296.476 15.744V20.064H295.324C294.428 20.064 293.628 20.2027 292.924 20.48C292.22 20.7573 291.665 21.2373 291.26 21.92C290.876 22.6027 290.684 23.552 290.684 24.768V32H286.588Z" class="logo-nuxt"/>
  <path d="M2.176 32V9.6H6.272L16.8 25.376V9.6H20.896V32H16.8L6.272 16.256V32H2.176ZM30.4545 32.384C28.4705 32.384 26.9345 31.7653 25.8465 30.528C24.7798 29.2907 24.2465 27.4773 24.2465 25.088V16.128H28.3105V24.704C28.3105 26.0693 28.5878 27.1147 29.1425 27.84C29.6972 28.5653 30.5718 28.928 31.7665 28.928C32.8972 28.928 33.8252 28.5227 34.5505 27.712C35.2972 26.9013 35.6705 25.7707 35.6705 24.32V16.128H39.7665V32H36.1505L35.8305 29.312C35.3398 30.2507 34.6252 30.9973 33.6865 31.552C32.7692 32.1067 31.6918 32.384 30.4545 32.384ZM41.8273 32L47.5873 24.064L41.8273 16.128H46.2113L50.2433 21.76L54.2433 16.128H58.6593L52.8673 24.064L58.6593 32H54.2433L50.2433 26.368L46.2113 32H41.8273ZM67.7008 32C66.0368 32 64.7034 31.5947 63.7008 30.784C62.6981 29.9733 62.1968 28.5333 62.1968 26.464V19.552H59.4768V16.128H62.1968L62.6768 11.872H66.2928V16.128H70.5808V19.552H66.2928V26.496C66.2928 27.264 66.4528 27.7973 66.7728 28.096C67.1141 28.3733 67.6901 28.512 68.5008 28.512H70.4848V32H67.7008Z" fill="#002E3B"/>
</svg>
